<mxfile host="app.diagrams.net" modified="2022-07-13T02:12:22.810Z" agent="5.0 (Windows NT 10.0; Win64; x64) AppleWebKit/537.36 (KHTML, like Gecko) Chrome/103.0.0.0 Safari/537.36" etag="zRz-MCYDMMka0dWKKSxq" version="20.0.3" type="github">
  <diagram name="Page-1" id="4fc8d65c-f3f6-feb3-4d1c-02f59d9f9886">
    <mxGraphModel dx="1278" dy="547" grid="0" gridSize="10" guides="1" tooltips="1" connect="1" arrows="1" fold="1" page="1" pageScale="1" pageWidth="826" pageHeight="1169" background="none" math="0" shadow="0">
      <root>
        <mxCell id="0" />
        <mxCell id="1" parent="0" />
        <mxCell id="E8qVWv2yx--T5LNkzgXp-314" value="&lt;h1&gt;敏捷&lt;/h1&gt;" style="text;html=1;strokeColor=#36393d;fillColor=#eeeeee;spacing=5;spacingTop=-20;whiteSpace=wrap;overflow=hidden;rounded=0;fontSize=14;" parent="1" vertex="1">
          <mxGeometry x="70" y="610" width="1600" height="390" as="geometry" />
        </mxCell>
        <mxCell id="E8qVWv2yx--T5LNkzgXp-278" value="&lt;h1&gt;&lt;span style=&quot;font-weight: 400; text-align: center;&quot;&gt;&lt;font style=&quot;font-size: 24px;&quot;&gt;传统开发流程&lt;/font&gt;&lt;/span&gt;&lt;br&gt;&lt;/h1&gt;" style="text;html=1;strokeColor=#9673a6;fillColor=#e1d5e7;spacing=5;spacingTop=-20;whiteSpace=wrap;overflow=hidden;rounded=0;" parent="1" vertex="1">
          <mxGeometry x="70" y="180" width="1380" height="400" as="geometry" />
        </mxCell>
        <mxCell id="E8qVWv2yx--T5LNkzgXp-277" value="&lt;h1&gt;这个部分略(没有当过公司高管，没有经验，没有实践过)&lt;/h1&gt;" style="text;html=1;strokeColor=#6c8ebf;fillColor=#dae8fc;spacing=5;spacingTop=-20;whiteSpace=wrap;overflow=hidden;rounded=0;" parent="1" vertex="1">
          <mxGeometry x="70" y="40" width="990" height="120" as="geometry" />
        </mxCell>
        <mxCell id="E8qVWv2yx--T5LNkzgXp-267" value="原始需求收集" style="rounded=1;whiteSpace=wrap;html=1;fillColor=#6a00ff;fontColor=#ffffff;strokeColor=#3700CC;" parent="1" vertex="1">
          <mxGeometry x="80" y="220" width="120" height="30" as="geometry" />
        </mxCell>
        <mxCell id="E8qVWv2yx--T5LNkzgXp-291" value="" style="edgeStyle=orthogonalEdgeStyle;rounded=0;orthogonalLoop=1;jettySize=auto;html=1;fontSize=9;entryX=0.397;entryY=0.582;entryDx=0;entryDy=0;entryPerimeter=0;" parent="1" source="E8qVWv2yx--T5LNkzgXp-268" target="E8qVWv2yx--T5LNkzgXp-287" edge="1">
          <mxGeometry relative="1" as="geometry">
            <mxPoint x="650" y="235" as="targetPoint" />
            <Array as="points">
              <mxPoint x="630" y="235" />
              <mxPoint x="630" y="235" />
            </Array>
          </mxGeometry>
        </mxCell>
        <mxCell id="E8qVWv2yx--T5LNkzgXp-292" value="UML/DFD/FLOW" style="edgeLabel;html=1;align=center;verticalAlign=middle;resizable=0;points=[];fontSize=9;" parent="E8qVWv2yx--T5LNkzgXp-291" vertex="1" connectable="0">
          <mxGeometry x="-0.2212" y="2" relative="1" as="geometry">
            <mxPoint x="1" as="offset" />
          </mxGeometry>
        </mxCell>
        <mxCell id="E8qVWv2yx--T5LNkzgXp-268" value="全部需求" style="rounded=1;whiteSpace=wrap;html=1;fillColor=#6a00ff;fontColor=#ffffff;strokeColor=#3700CC;" parent="1" vertex="1">
          <mxGeometry x="450" y="220" width="120" height="30" as="geometry" />
        </mxCell>
        <mxCell id="E8qVWv2yx--T5LNkzgXp-269" value="借助工具archimate /UML" style="endArrow=classic;html=1;rounded=0;exitX=1;exitY=0.5;exitDx=0;exitDy=0;entryX=0;entryY=0.5;entryDx=0;entryDy=0;" parent="1" source="E8qVWv2yx--T5LNkzgXp-267" target="E8qVWv2yx--T5LNkzgXp-268" edge="1">
          <mxGeometry width="50" height="50" relative="1" as="geometry">
            <mxPoint x="290" y="202" as="sourcePoint" />
            <mxPoint x="340" y="152" as="targetPoint" />
          </mxGeometry>
        </mxCell>
        <mxCell id="E8qVWv2yx--T5LNkzgXp-274" value="" style="edgeStyle=orthogonalEdgeStyle;rounded=0;orthogonalLoop=1;jettySize=auto;html=1;" parent="1" source="E8qVWv2yx--T5LNkzgXp-270" target="E8qVWv2yx--T5LNkzgXp-271" edge="1">
          <mxGeometry relative="1" as="geometry" />
        </mxCell>
        <mxCell id="E8qVWv2yx--T5LNkzgXp-270" value="公司愿景" style="rounded=1;whiteSpace=wrap;html=1;" parent="1" vertex="1">
          <mxGeometry x="80" y="90" width="120" height="40" as="geometry" />
        </mxCell>
        <mxCell id="E8qVWv2yx--T5LNkzgXp-279" value="" style="edgeStyle=orthogonalEdgeStyle;rounded=0;orthogonalLoop=1;jettySize=auto;html=1;" parent="1" source="E8qVWv2yx--T5LNkzgXp-271" target="E8qVWv2yx--T5LNkzgXp-273" edge="1">
          <mxGeometry relative="1" as="geometry" />
        </mxCell>
        <mxCell id="E8qVWv2yx--T5LNkzgXp-271" value="目标/战略" style="rounded=1;whiteSpace=wrap;html=1;" parent="1" vertex="1">
          <mxGeometry x="260" y="90" width="120" height="40" as="geometry" />
        </mxCell>
        <mxCell id="E8qVWv2yx--T5LNkzgXp-273" value="业务/ 应用/技术" style="rounded=1;whiteSpace=wrap;html=1;" parent="1" vertex="1">
          <mxGeometry x="460" y="90" width="120" height="40" as="geometry" />
        </mxCell>
        <mxCell id="E8qVWv2yx--T5LNkzgXp-285" value="&lt;ol&gt;&lt;li&gt;&amp;nbsp;用户需求往往是零碎的，只能借助工具分析&lt;/li&gt;&lt;li&gt;和用户沟通是一个反复的过程，这就是很多流程中，那个喇叭口的原因。&lt;/li&gt;&lt;li&gt;这个时候不知道系统长相，通过工具分析，刻画系统长相。&lt;/li&gt;&lt;/ol&gt;" style="text;html=1;strokeColor=none;fillColor=none;align=left;verticalAlign=middle;whiteSpace=wrap;rounded=0;fontSize=9;" parent="1" vertex="1">
          <mxGeometry x="205" y="250" width="230" height="60" as="geometry" />
        </mxCell>
        <mxCell id="E8qVWv2yx--T5LNkzgXp-295" value="" style="edgeStyle=orthogonalEdgeStyle;rounded=0;orthogonalLoop=1;jettySize=auto;html=1;fontSize=9;" parent="1" source="E8qVWv2yx--T5LNkzgXp-286" target="E8qVWv2yx--T5LNkzgXp-294" edge="1">
          <mxGeometry relative="1" as="geometry" />
        </mxCell>
        <mxCell id="E8qVWv2yx--T5LNkzgXp-286" value="设计" style="rounded=1;whiteSpace=wrap;html=1;fillColor=#6a00ff;fontColor=#ffffff;strokeColor=#3700CC;" parent="1" vertex="1">
          <mxGeometry x="706" y="220" width="120" height="30" as="geometry" />
        </mxCell>
        <mxCell id="E8qVWv2yx--T5LNkzgXp-287" value="" style="shape=waypoint;sketch=0;size=6;pointerEvents=1;points=[];fillColor=#6a00ff;resizable=0;rotatable=0;perimeter=centerPerimeter;snapToPoint=1;strokeColor=#3700CC;fontColor=#ffffff;rounded=1;" parent="1" vertex="1">
          <mxGeometry x="690" y="215" width="40" height="40" as="geometry" />
        </mxCell>
        <mxCell id="E8qVWv2yx--T5LNkzgXp-293" value="1.&amp;nbsp; 依照需求输出结果&lt;br&gt;2.&amp;nbsp; 综合考虑，同时兼顾 部署，运营，销售等方面" style="text;html=1;strokeColor=none;fillColor=none;align=left;verticalAlign=middle;whiteSpace=wrap;rounded=0;fontSize=9;" parent="1" vertex="1">
          <mxGeometry x="711" y="242.5" width="110" height="75" as="geometry" />
        </mxCell>
        <mxCell id="E8qVWv2yx--T5LNkzgXp-299" value="" style="edgeStyle=orthogonalEdgeStyle;rounded=0;orthogonalLoop=1;jettySize=auto;html=1;fontSize=9;" parent="1" source="E8qVWv2yx--T5LNkzgXp-294" target="E8qVWv2yx--T5LNkzgXp-298" edge="1">
          <mxGeometry relative="1" as="geometry" />
        </mxCell>
        <mxCell id="E8qVWv2yx--T5LNkzgXp-294" value="开发任务" style="rounded=1;whiteSpace=wrap;html=1;fillColor=#6a00ff;fontColor=#ffffff;strokeColor=#3700CC;" parent="1" vertex="1">
          <mxGeometry x="906" y="220" width="120" height="30" as="geometry" />
        </mxCell>
        <mxCell id="E8qVWv2yx--T5LNkzgXp-297" value="1.&amp;nbsp; 将详细设计进行切割&lt;br&gt;2.&amp;nbsp; 流水节奏式下发任务，土木工程上的进度控制，监理的那套理论，包括，流水 ，甘特图，这些都是工程上借鉴过来的。" style="text;html=1;strokeColor=none;fillColor=none;align=left;verticalAlign=middle;whiteSpace=wrap;rounded=0;fontSize=9;" parent="1" vertex="1">
          <mxGeometry x="906" y="255" width="110" height="75" as="geometry" />
        </mxCell>
        <mxCell id="E8qVWv2yx--T5LNkzgXp-302" value="" style="edgeStyle=orthogonalEdgeStyle;rounded=0;orthogonalLoop=1;jettySize=auto;html=1;fontSize=9;" parent="1" source="E8qVWv2yx--T5LNkzgXp-298" target="E8qVWv2yx--T5LNkzgXp-301" edge="1">
          <mxGeometry relative="1" as="geometry" />
        </mxCell>
        <mxCell id="E8qVWv2yx--T5LNkzgXp-298" value="测试" style="rounded=1;whiteSpace=wrap;html=1;fillColor=#6a00ff;fontColor=#ffffff;strokeColor=#3700CC;" parent="1" vertex="1">
          <mxGeometry x="1106" y="220" width="120" height="30" as="geometry" />
        </mxCell>
        <mxCell id="E8qVWv2yx--T5LNkzgXp-300" value="1. 各种测试手段&lt;br&gt;2. 做各种测试报告" style="text;html=1;strokeColor=none;fillColor=none;align=left;verticalAlign=middle;whiteSpace=wrap;rounded=0;fontSize=9;" parent="1" vertex="1">
          <mxGeometry x="1116" y="255" width="110" height="55" as="geometry" />
        </mxCell>
        <mxCell id="E8qVWv2yx--T5LNkzgXp-301" value="验收/运营" style="rounded=1;whiteSpace=wrap;html=1;fillColor=#6a00ff;fontColor=#ffffff;strokeColor=#3700CC;" parent="1" vertex="1">
          <mxGeometry x="1306" y="220" width="120" height="30" as="geometry" />
        </mxCell>
        <mxCell id="E8qVWv2yx--T5LNkzgXp-303" value="原始需求收集" style="rounded=1;whiteSpace=wrap;html=1;fillColor=#6a00ff;fontColor=#ffffff;strokeColor=#3700CC;" parent="1" vertex="1">
          <mxGeometry x="80" y="350" width="120" height="30" as="geometry" />
        </mxCell>
        <mxCell id="E8qVWv2yx--T5LNkzgXp-306" value="需求变更（少量）" style="rounded=1;whiteSpace=wrap;html=1;fillColor=#6a00ff;fontColor=#ffffff;strokeColor=#3700CC;" parent="1" vertex="1">
          <mxGeometry x="440" y="350" width="120" height="30" as="geometry" />
        </mxCell>
        <mxCell id="E8qVWv2yx--T5LNkzgXp-307" value="" style="endArrow=classic;html=1;rounded=0;fontSize=9;exitX=1;exitY=0.5;exitDx=0;exitDy=0;" parent="1" source="E8qVWv2yx--T5LNkzgXp-306" target="E8qVWv2yx--T5LNkzgXp-287" edge="1">
          <mxGeometry width="50" height="50" relative="1" as="geometry">
            <mxPoint x="530" y="390" as="sourcePoint" />
            <mxPoint x="580" y="340" as="targetPoint" />
          </mxGeometry>
        </mxCell>
        <mxCell id="E8qVWv2yx--T5LNkzgXp-309" value="" style="endArrow=classic;html=1;rounded=0;fontSize=9;entryX=0;entryY=0.5;entryDx=0;entryDy=0;exitX=1;exitY=0.5;exitDx=0;exitDy=0;" parent="1" source="E8qVWv2yx--T5LNkzgXp-303" target="E8qVWv2yx--T5LNkzgXp-306" edge="1">
          <mxGeometry width="50" height="50" relative="1" as="geometry">
            <mxPoint x="530" y="390" as="sourcePoint" />
            <mxPoint x="580" y="340" as="targetPoint" />
          </mxGeometry>
        </mxCell>
        <mxCell id="E8qVWv2yx--T5LNkzgXp-311" value="&lt;h1&gt;&lt;font style=&quot;font-size: 14px;&quot;&gt;优点:&amp;nbsp; 收集的需求细节多，看到更多系统全貌， 因此设计出来系统更高效，健壮。&lt;/font&gt;&lt;/h1&gt;&lt;div&gt;&lt;font style=&quot;font-size: 14px;&quot;&gt;缺点： 开发周期长，美国有一个失败案例，系统开发10年，10年之后，原始业务公司不存在了。 变更不够灵活。&lt;/font&gt;&lt;/div&gt;" style="text;html=1;spacing=5;spacingTop=-20;whiteSpace=wrap;overflow=hidden;rounded=0;fontSize=9;" parent="1" vertex="1">
          <mxGeometry x="210" y="380" width="190" height="160" as="geometry" />
        </mxCell>
        <mxCell id="E8qVWv2yx--T5LNkzgXp-312" value="&lt;h1&gt;迭代框（循环）&lt;/h1&gt;" style="text;html=1;strokeColor=#36393d;fillColor=#cdeb8b;spacing=5;spacingTop=-20;whiteSpace=wrap;overflow=hidden;rounded=0;fontSize=14;" parent="1" vertex="1">
          <mxGeometry x="290" y="620" width="1180" height="190" as="geometry" />
        </mxCell>
        <mxCell id="E8qVWv2yx--T5LNkzgXp-313" value="市场调研/业务思路/风险评估" style="rounded=0;whiteSpace=wrap;html=1;fontSize=14;" parent="1" vertex="1">
          <mxGeometry x="77" y="680" width="180" height="30" as="geometry" />
        </mxCell>
        <mxCell id="E8qVWv2yx--T5LNkzgXp-318" value="" style="edgeStyle=orthogonalEdgeStyle;rounded=0;orthogonalLoop=1;jettySize=auto;html=1;fontSize=14;" parent="1" source="E8qVWv2yx--T5LNkzgXp-315" target="E8qVWv2yx--T5LNkzgXp-317" edge="1">
          <mxGeometry relative="1" as="geometry" />
        </mxCell>
        <mxCell id="E8qVWv2yx--T5LNkzgXp-315" value="目标" style="rounded=0;whiteSpace=wrap;html=1;fontSize=14;" parent="1" vertex="1">
          <mxGeometry x="330" y="675" width="120" height="40" as="geometry" />
        </mxCell>
        <mxCell id="E8qVWv2yx--T5LNkzgXp-316" value="" style="endArrow=classic;html=1;rounded=0;fontSize=14;exitX=1;exitY=0.5;exitDx=0;exitDy=0;entryX=0;entryY=0.5;entryDx=0;entryDy=0;" parent="1" source="E8qVWv2yx--T5LNkzgXp-313" target="E8qVWv2yx--T5LNkzgXp-315" edge="1">
          <mxGeometry width="50" height="50" relative="1" as="geometry">
            <mxPoint x="380" y="700" as="sourcePoint" />
            <mxPoint x="430" y="650" as="targetPoint" />
          </mxGeometry>
        </mxCell>
        <mxCell id="E8qVWv2yx--T5LNkzgXp-320" value="" style="edgeStyle=orthogonalEdgeStyle;rounded=0;orthogonalLoop=1;jettySize=auto;html=1;fontSize=14;" parent="1" source="E8qVWv2yx--T5LNkzgXp-317" target="E8qVWv2yx--T5LNkzgXp-319" edge="1">
          <mxGeometry relative="1" as="geometry" />
        </mxCell>
        <mxCell id="E8qVWv2yx--T5LNkzgXp-317" value="Feature" style="rounded=0;whiteSpace=wrap;html=1;fontSize=14;" parent="1" vertex="1">
          <mxGeometry x="530" y="675" width="120" height="40" as="geometry" />
        </mxCell>
        <mxCell id="E8qVWv2yx--T5LNkzgXp-319" value="Userstroy" style="rounded=0;whiteSpace=wrap;html=1;fontSize=14;" parent="1" vertex="1">
          <mxGeometry x="730" y="675" width="120" height="40" as="geometry" />
        </mxCell>
        <mxCell id="E8qVWv2yx--T5LNkzgXp-321" value="Task" style="rounded=0;whiteSpace=wrap;html=1;fontSize=14;" parent="1" vertex="1">
          <mxGeometry x="930" y="730" width="120" height="40" as="geometry" />
        </mxCell>
        <mxCell id="E8qVWv2yx--T5LNkzgXp-323" value="Task" style="rounded=0;whiteSpace=wrap;html=1;fontSize=14;" parent="1" vertex="1">
          <mxGeometry x="930" y="630" width="120" height="40" as="geometry" />
        </mxCell>
        <mxCell id="E8qVWv2yx--T5LNkzgXp-328" value="" style="edgeStyle=orthogonalEdgeStyle;rounded=0;orthogonalLoop=1;jettySize=auto;html=1;fontSize=14;" parent="1" source="E8qVWv2yx--T5LNkzgXp-324" target="E8qVWv2yx--T5LNkzgXp-327" edge="1">
          <mxGeometry relative="1" as="geometry" />
        </mxCell>
        <mxCell id="E8qVWv2yx--T5LNkzgXp-324" value="Task" style="rounded=0;whiteSpace=wrap;html=1;fontSize=14;" parent="1" vertex="1">
          <mxGeometry x="930" y="675" width="120" height="40" as="geometry" />
        </mxCell>
        <mxCell id="E8qVWv2yx--T5LNkzgXp-325" value="" style="endArrow=classic;html=1;rounded=0;fontSize=14;entryX=0;entryY=0.5;entryDx=0;entryDy=0;exitX=1;exitY=0.5;exitDx=0;exitDy=0;" parent="1" source="E8qVWv2yx--T5LNkzgXp-319" target="E8qVWv2yx--T5LNkzgXp-324" edge="1">
          <mxGeometry width="50" height="50" relative="1" as="geometry">
            <mxPoint x="770" y="770" as="sourcePoint" />
            <mxPoint x="820" y="720" as="targetPoint" />
          </mxGeometry>
        </mxCell>
        <mxCell id="E8qVWv2yx--T5LNkzgXp-330" value="" style="edgeStyle=orthogonalEdgeStyle;rounded=0;orthogonalLoop=1;jettySize=auto;html=1;fontSize=14;" parent="1" source="E8qVWv2yx--T5LNkzgXp-327" target="E8qVWv2yx--T5LNkzgXp-329" edge="1">
          <mxGeometry relative="1" as="geometry" />
        </mxCell>
        <mxCell id="E8qVWv2yx--T5LNkzgXp-327" value="UAT" style="rounded=0;whiteSpace=wrap;html=1;fontSize=14;" parent="1" vertex="1">
          <mxGeometry x="1130" y="675" width="120" height="40" as="geometry" />
        </mxCell>
        <mxCell id="E8qVWv2yx--T5LNkzgXp-332" value="" style="edgeStyle=orthogonalEdgeStyle;rounded=0;orthogonalLoop=1;jettySize=auto;html=1;fontSize=14;" parent="1" source="E8qVWv2yx--T5LNkzgXp-329" target="E8qVWv2yx--T5LNkzgXp-331" edge="1">
          <mxGeometry relative="1" as="geometry" />
        </mxCell>
        <mxCell id="E8qVWv2yx--T5LNkzgXp-329" value="PROD" style="rounded=0;whiteSpace=wrap;html=1;fontSize=14;" parent="1" vertex="1">
          <mxGeometry x="1330" y="675" width="120" height="40" as="geometry" />
        </mxCell>
        <mxCell id="E8qVWv2yx--T5LNkzgXp-331" value="行为记录/数据分析/后续决策" style="rounded=0;whiteSpace=wrap;html=1;fontSize=14;" parent="1" vertex="1">
          <mxGeometry x="1530" y="675" width="120" height="40" as="geometry" />
        </mxCell>
        <mxCell id="E8qVWv2yx--T5LNkzgXp-333" value="&lt;div style=&quot;text-align: left;&quot;&gt;&lt;span style=&quot;background-color: initial;&quot;&gt;优点:&amp;nbsp; &amp;nbsp;面向用户交付，及时收集用户反馈。&lt;/span&gt;&lt;/div&gt;&lt;div style=&quot;text-align: left;&quot;&gt;&lt;span style=&quot;background-color: initial;&quot;&gt;缺点：迭代过程可能存在反复重构，因此对设计阶段要求高。&lt;/span&gt;&lt;/div&gt;&lt;div style=&quot;text-align: left;&quot;&gt;&lt;span style=&quot;background-color: initial;&quot;&gt;&lt;br&gt;&lt;/span&gt;&lt;/div&gt;&lt;div style=&quot;text-align: left;&quot;&gt;&lt;span style=&quot;background-color: initial;&quot;&gt;&lt;br&gt;&lt;/span&gt;&lt;/div&gt;&lt;div style=&quot;text-align: left;&quot;&gt;&lt;span style=&quot;background-color: initial;&quot;&gt;&lt;font style=&quot;font-size: 14px;&quot;&gt;个人比较推荐这种实践的，需求有足够粒度，拉通设计，持续交付(按照story)， 这样就可以及时获取用户反馈，同时因为有足够设计考量，不至于产生代码重构深渊。&lt;/font&gt;&lt;/span&gt;&lt;/div&gt;" style="text;html=1;strokeColor=none;fillColor=none;align=center;verticalAlign=middle;whiteSpace=wrap;rounded=0;fontSize=14;" parent="1" vertex="1">
          <mxGeometry x="135" y="800" width="300" height="190" as="geometry" />
        </mxCell>
        <mxCell id="E8qVWv2yx--T5LNkzgXp-338" value="1. 控制点，需求列表&lt;br&gt;2. 价值评估" style="text;html=1;strokeColor=none;fillColor=none;align=left;verticalAlign=middle;whiteSpace=wrap;rounded=0;fontSize=14;" parent="1" vertex="1">
          <mxGeometry x="520" y="720" width="140" height="70" as="geometry" />
        </mxCell>
        <mxCell id="E8qVWv2yx--T5LNkzgXp-339" value="1.&amp;nbsp; 控制点， 对价值输出检验。" style="text;html=1;strokeColor=none;fillColor=none;align=left;verticalAlign=middle;whiteSpace=wrap;rounded=0;fontSize=14;" parent="1" vertex="1">
          <mxGeometry x="1310" y="720" width="140" height="70" as="geometry" />
        </mxCell>
        <mxCell id="E8qVWv2yx--T5LNkzgXp-340" value="遵循INVEST原则，独立，可协商，有价值，可估算，足够小，可测试。生活中的我们用5W1H，可以用在这里。&amp;nbsp; &amp;nbsp;监控可以scrum, sprint 等" style="text;html=1;strokeColor=none;fillColor=none;align=left;verticalAlign=middle;whiteSpace=wrap;rounded=0;fontSize=14;" parent="1" vertex="1">
          <mxGeometry x="730" y="735" width="140" height="75" as="geometry" />
        </mxCell>
      </root>
    </mxGraphModel>
  </diagram>
</mxfile>
